<svg id="Calque_1" data-name="Calque 1" xmlns="http://www.w3.org/2000/svg" viewBox="0 0 37 37"><defs><style>.cls-1{fill:#fff;}.cls-2{fill:none;stroke:#000;stroke-miterlimit:10;stroke-width:0.25px;}</style></defs><circle class="cls-1" cx="18.5" cy="18.5" r="18.5"/><path d="M6.38,28.12a.75.75,0,0,1-.38.36.67.67,0,0,1-.67,0,1.45,1.45,0,0,1-.57-.67l-.61-1.27L6.9,25.2l.58,1.19a1.35,1.35,0,0,1,.16.81.67.67,0,0,1-.4.5.71.71,0,0,1-.44.08.89.89,0,0,1-.39-.19A.79.79,0,0,1,6.38,28.12Zm-1,.06a.46.46,0,0,0,.48,0c.35-.17.4-.5.16-1l-.47-1-1,.5.47,1A1.08,1.08,0,0,0,5.4,28.18Zm1.4-2.57-1,.49.42.87a1,1,0,0,0,.38.46.5.5,0,0,0,.46,0,.48.48,0,0,0,.28-.37.92.92,0,0,0-.12-.57Z" transform="translate(-1 -2)"/><path d="M6.16,29.88a1.06,1.06,0,0,1,.08-.58,1.13,1.13,0,0,1,.38-.49,1.21,1.21,0,0,1,.57-.25,1,1,0,0,1,.58.08,1.19,1.19,0,0,1,.49.38,1.23,1.23,0,0,1,.25.56,1.09,1.09,0,0,1-.07.59,1.29,1.29,0,0,1-.39.49,1.31,1.31,0,0,1-.57.25,1.16,1.16,0,0,1-.58-.08,1.28,1.28,0,0,1-.49-.38A1.27,1.27,0,0,1,6.16,29.88Zm.83.68a.78.78,0,0,0,.43.05,1.09,1.09,0,0,0,.44-.2.91.91,0,0,0,.3-.38.8.8,0,0,0,.07-.43A.89.89,0,0,0,8,29.18a.77.77,0,0,0-.35-.27.74.74,0,0,0-.44-.05.92.92,0,0,0-.44.2.88.88,0,0,0-.3.37.83.83,0,0,0-.06.44.92.92,0,0,0,.54.69Z" transform="translate(-1 -2)"/><path d="M10.89,31.69,9.37,33.42l-.22-.2.28-.31a.94.94,0,0,1-.47,0,1.1,1.1,0,0,1-.45-.24A.92.92,0,0,1,8.15,32a1,1,0,0,1,.28-.73l.88-1,.23.2-.85,1a.78.78,0,0,0-.23.54.68.68,0,0,0,.26.47.75.75,0,0,0,.58.21.8.8,0,0,0,.56-.32l.79-.91Z" transform="translate(-1 -2)"/><path d="M11.42,34.58a.49.49,0,0,1-.24,0,.8.8,0,0,1-.25-.11.62.62,0,0,1-.33-.41.66.66,0,0,1,.11-.51l.74-1.18-.35-.21.14-.23.34.22.27-.43.27.17-.27.42.59.38-.14.22-.59-.37L11,33.69a.45.45,0,0,0-.08.32.4.4,0,0,0,.2.25l.17.07a.55.55,0,0,0,.18,0Z" transform="translate(-1 -2)"/><path d="M13.27,32.46a.25.25,0,0,1,0-.17.22.22,0,0,1,.13-.1.2.2,0,0,1,.17,0,.22.22,0,0,1,.12.13.18.18,0,0,1,0,.16.22.22,0,0,1-.13.12.2.2,0,0,1-.17,0A.2.2,0,0,1,13.27,32.46ZM13,33l.28.13-1,2.06L12,35Z" transform="translate(-1 -2)"/><path d="M16,34.13l-1,3-.3-.09.4-1.22a1,1,0,0,1-.45.21,1.17,1.17,0,0,1-.52,0,1.2,1.2,0,0,1-.51-.32,1,1,0,0,1-.26-.52,1.25,1.25,0,0,1,0-.63,1.2,1.2,0,0,1,.33-.53,1,1,0,0,1,.52-.26,1.12,1.12,0,0,1,.6,0,1,1,0,0,1,.45.28,1,1,0,0,1,.25.44l.14-.43Zm-1.29,1.61a.75.75,0,0,0,.39-.21,1,1,0,0,0,.25-.41.89.89,0,0,0,0-.48.79.79,0,0,0-.19-.39.9.9,0,0,0-.38-.25.87.87,0,0,0-.45,0,.92.92,0,0,0-.39.21,1,1,0,0,0-.25.41.88.88,0,0,0,0,.48.79.79,0,0,0,.19.39.9.9,0,0,0,.38.25A.86.86,0,0,0,14.71,35.74Z" transform="translate(-1 -2)"/><path d="M18.78,34.53l-.27,2.28-.29,0,0-.41a.8.8,0,0,1-.37.28,1,1,0,0,1-.5.06,1,1,0,0,1-.68-.33,1,1,0,0,1-.17-.77l.16-1.32.31,0-.16,1.29a.79.79,0,0,0,.12.57.64.64,0,0,0,.48.24.76.76,0,0,0,.6-.15.83.83,0,0,0,.28-.58l.14-1.2Z" transform="translate(-1 -2)"/><path d="M21.65,35.62l-1.92.14a.84.84,0,0,0,.32.56.93.93,0,0,0,.64.17.94.94,0,0,0,.39-.11.85.85,0,0,0,.29-.24l.19.18a.9.9,0,0,1-.36.31,1.3,1.3,0,0,1-1.13,0,1.06,1.06,0,0,1-.46-.38,1.18,1.18,0,0,1-.19-.59,1.23,1.23,0,0,1,.09-.61,1.1,1.1,0,0,1,.37-.45,1.21,1.21,0,0,1,.57-.19,1.14,1.14,0,0,1,.58.11,1,1,0,0,1,.43.38,1.25,1.25,0,0,1,.19.59ZM19.93,35a.86.86,0,0,0-.22.57l1.63-.12a.81.81,0,0,0-.3-.53.84.84,0,0,0-1.11.08Z" transform="translate(-1 -2)"/><path d="M25.33,32.41l1.08,2.87-.3.11-.5-1.32-1.79.68.5,1.32-.3.11-1.08-2.86.3-.11.48,1.27,1.79-.68L25,32.53Z" transform="translate(-1 -2)"/><path d="M27.27,31.67l-.56-.07-.17.54-.24.16.18-.76.26-.17.77.14Zm.52,2.68a1.17,1.17,0,0,1-.58-.12,1.34,1.34,0,0,1-.46-.43,1.16,1.16,0,0,1-.2-.58,1.06,1.06,0,0,1,.13-.58,1.17,1.17,0,0,1,.41-.45,1.19,1.19,0,0,1,.59-.2,1,1,0,0,1,.57.11,1.19,1.19,0,0,1,.46.43,1.16,1.16,0,0,1,.2.58,1,1,0,0,1-.12.58,1.22,1.22,0,0,1-.42.46A1.26,1.26,0,0,1,27.79,34.35Zm.74-.77a.79.79,0,0,0,.08-.43,1,1,0,0,0-.16-.45.92.92,0,0,0-.35-.33.74.74,0,0,0-.43-.1.89.89,0,0,0-.43.15.84.84,0,0,0-.39.76,1,1,0,0,0,.17.45.85.85,0,0,0,.35.33.71.71,0,0,0,.42.1,1,1,0,0,0,.43-.14A.91.91,0,0,0,28.53,33.58Z" transform="translate(-1 -2)"/><path d="M30.8,32a.46.46,0,0,1-.08.24.83.83,0,0,1-.17.21.68.68,0,0,1-.49.2.67.67,0,0,1-.46-.25l-.93-1-.3.27-.18-.19.31-.28-.33-.37.22-.21.34.37.52-.46.18.19-.52.47.91,1a.41.41,0,0,0,.29.16.39.39,0,0,0,.29-.11,1.58,1.58,0,0,0,.12-.15.37.37,0,0,0,.05-.17Z" transform="translate(-1 -2)"/><path d="M31.89,29.36l-1.22,1.48a.82.82,0,0,0,.62.15.86.86,0,0,0,.57-.34,1.09,1.09,0,0,0,.19-.35.82.82,0,0,0,0-.38h.26a.94.94,0,0,1,0,.47,1.26,1.26,0,0,1-.25.45,1.34,1.34,0,0,1-.51.39,1.09,1.09,0,0,1-.59.06,1.2,1.2,0,0,1-.57-.27,1.28,1.28,0,0,1-.37-.5,1.11,1.11,0,0,1-.06-.57,1.21,1.21,0,0,1,.25-.54,1.12,1.12,0,0,1,.48-.34,1,1,0,0,1,.58,0,1.18,1.18,0,0,1,.55.27Zm-1.67.78a.9.9,0,0,0,.27.55l1-1.26a.81.81,0,0,0-.59-.15.77.77,0,0,0-.52.29A.81.81,0,0,0,30.22,30.14Z" transform="translate(-1 -2)"/><path d="M30.42,27.55l.17-.26L33.33,29l-.16.26Z" transform="translate(-1 -2)"/><path d="M34.49,26.34a1.44,1.44,0,0,1-.71.35,1.54,1.54,0,0,1-.82-.07,1.59,1.59,0,0,1-.69-.46,1.48,1.48,0,0,1-.33-.73,1.83,1.83,0,0,1,.4-1.39,1.38,1.38,0,0,1,.48-.36l.12.27a1.23,1.23,0,0,0-.64.73,1.32,1.32,0,0,0-.06.68,1.18,1.18,0,0,0,.27.59,1.25,1.25,0,0,0,.55.37,1.29,1.29,0,0,0,.67.06,1.18,1.18,0,0,0,.58-.29,1.33,1.33,0,0,0,.38-.57,1.17,1.17,0,0,0,0-1l.27-.13a1.42,1.42,0,0,1,.15.58,1.73,1.73,0,0,1-.1.63A1.67,1.67,0,0,1,34.49,26.34Z" transform="translate(-1 -2)"/><path d="M35.4,23.34a1.16,1.16,0,0,1-.47.35,1.09,1.09,0,0,1-.62.06,1.2,1.2,0,0,1-.58-.23,1.11,1.11,0,0,1-.35-.48,1.24,1.24,0,0,1-.06-.61,1.21,1.21,0,0,1,.23-.57A1.15,1.15,0,0,1,34,21.5a1.24,1.24,0,0,1,.61-.06,1.12,1.12,0,0,1,.58.24,1,1,0,0,1,.35.47,1.17,1.17,0,0,1,.07.62A1.45,1.45,0,0,1,35.4,23.34Zm-.08-1.06a.79.79,0,0,0-.27-.35,1.12,1.12,0,0,0-.45-.18,1.1,1.1,0,0,0-.48,0,.86.86,0,0,0-.36.26.87.87,0,0,0-.17.42.85.85,0,0,0,0,.45.76.76,0,0,0,.27.35.9.9,0,0,0,.44.17,1,1,0,0,0,.48,0,.73.73,0,0,0,.36-.26.8.8,0,0,0,.17-.41A.94.94,0,0,0,35.32,22.28Z" transform="translate(-1 -2)"/><path d="M32.54,20.73v-.31l3.24,0v.31Z" transform="translate(-1 -2)"/><path d="M32.52,19.67l0-.31,3.23-.23,0,.31Z" transform="translate(-1 -2)"/><path d="M34.21,16.29l.38,1.89a.83.83,0,0,0,.51-.38,1,1,0,0,0,.09-.67,1.11,1.11,0,0,0-.15-.37,1.16,1.16,0,0,0-.28-.26l.16-.21a1.07,1.07,0,0,1,.35.32,1.27,1.27,0,0,1,.19.48,1.25,1.25,0,0,1,0,.64,1,1,0,0,1-.33.5,1.09,1.09,0,0,1-.56.27,1.18,1.18,0,0,1-.62,0,1.11,1.11,0,0,1-.48-.31,1.14,1.14,0,0,1-.26-.54,1.07,1.07,0,0,1,0-.59,1,1,0,0,1,.33-.47,1.16,1.16,0,0,1,.56-.26Zm-.44,1.79a.79.79,0,0,0,.59.14L34,16.63a.77.77,0,0,0-.49.36.83.83,0,0,0,.22,1.09Z" transform="translate(-1 -2)"/><path d="M34.7,14.91a1.07,1.07,0,0,1-.23.55,1.19,1.19,0,0,1-.51.36,1.22,1.22,0,0,1-.62.07,1.1,1.1,0,0,1-.54-.24,1.28,1.28,0,0,1-.36-.51,1.17,1.17,0,0,1-.08-.54.83.83,0,0,1,.18-.47l.23.16a.69.69,0,0,0-.13.36.88.88,0,0,0,0,.39.94.94,0,0,0,.27.38.84.84,0,0,0,.41.17.88.88,0,0,0,.47-.07.89.89,0,0,0,.4-.27.77.77,0,0,0,.18-.4.92.92,0,0,0-.06-.46.81.81,0,0,0-.21-.32.75.75,0,0,0-.34-.18l.06-.28a1,1,0,0,1,.45.23,1.19,1.19,0,0,1,.3.45A1.23,1.23,0,0,1,34.7,14.91Z" transform="translate(-1 -2)"/><path d="M33.14,11.71a.57.57,0,0,1,.21.13.83.83,0,0,1,.27.73.7.7,0,0,1-.35.4l-1.2.69.2.35-.23.13-.2-.35L31.4,14l-.15-.28.44-.24-.35-.61.23-.13.34.61,1.2-.68a.45.45,0,0,0,.22-.24.36.36,0,0,0-.06-.31.58.58,0,0,0-.11-.15.51.51,0,0,0-.16-.09Z" transform="translate(-1 -2)"/><path d="M30.5,12.7a.19.19,0,0,1-.09.14.18.18,0,0,1-.16,0,.22.22,0,0,1-.15-.1.23.23,0,0,1,0-.16.21.21,0,0,1,.09-.15.25.25,0,0,1,.17,0,.18.18,0,0,1,.14.1A.21.21,0,0,1,30.5,12.7Zm.46-.34-.18-.25,1.88-1.33.18.25Z" transform="translate(-1 -2)"/><path d="M31.68,9.74a1.18,1.18,0,0,1,0,.59,1.15,1.15,0,0,1-.34.52,1.21,1.21,0,0,1-.54.3,1.07,1.07,0,0,1-.59,0,1.1,1.1,0,0,1-.52-.34,1.23,1.23,0,0,1-.3-.53,1.07,1.07,0,0,1,0-.59,1.24,1.24,0,0,1,.33-.53,1.3,1.3,0,0,1,.55-.3,1.08,1.08,0,0,1,.59,0,1.21,1.21,0,0,1,.52.33A1.3,1.3,0,0,1,31.68,9.74Zm-.89-.6a.82.82,0,0,0-.44,0,1.06,1.06,0,0,0-.41.25.92.92,0,0,0-.27.39.74.74,0,0,0,0,.44.84.84,0,0,0,.22.4.82.82,0,0,0,.38.24.73.73,0,0,0,.44,0,1,1,0,0,0,.42-.24.92.92,0,0,0,.26-.4.74.74,0,0,0,0-.44.86.86,0,0,0-.21-.4A.94.94,0,0,0,30.79,9.14Z" transform="translate(-1 -2)"/><path d="M27.11,8.32a1,1,0,0,1,.22-.75l.78-1.08.25.18L27.6,7.73a.73.73,0,0,0-.17.55.65.65,0,0,0,.3.45.78.78,0,0,0,.61.16.8.8,0,0,0,.53-.36l.7-1,.26.18L28.48,9.59l-.24-.17.25-.35a.79.79,0,0,1-.48.06,1,1,0,0,1-.49-.21A1,1,0,0,1,27.11,8.32Z" transform="translate(-1 -2)"/><path d="M23.05,25.59v-5.2H17.4v5.2a.23.23,0,0,0,.27.27h.91v.35H14.64v-.35h.91a.24.24,0,0,0,.27-.27v-11c0-.15-.1-.23-.27-.23h-.91V14h3.94v.35h-.91a.24.24,0,0,0-.27.27v5.2h5.65v-5.2a.24.24,0,0,0-.27-.27h-.91V14h3.94v.35h-.9c-.19,0-.28.08-.28.23v11c0,.19.09.27.28.27h.9v.35H21.87v-.35h.91A.23.23,0,0,0,23.05,25.59Z" transform="translate(-1 -2)"/><path d="M20.93,16.75l0,.3c0,.25-.12.38-.31.38a1.62,1.62,0,0,1-.58-.2,5.93,5.93,0,0,0-2.52-.58,6.51,6.51,0,0,0-1.69.23v.71a3.4,3.4,0,0,1,1.69-.43,4.06,4.06,0,0,1,2.34.65,2.78,2.78,0,0,1,1.11,2h.35V16.75Z" transform="translate(-1 -2)"/><path d="M19.84,27.14a4,4,0,0,1-2.34.65,3.38,3.38,0,0,1-2.82-1.4A6.27,6.27,0,0,1,13.6,22.5a6.39,6.39,0,0,1,1.07-3.91c.06-.08.12-.13.18-.2V17.25a5.05,5.05,0,0,0-1.36.95A5.88,5.88,0,0,0,12,22.49a5.75,5.75,0,0,0,1.56,4.27,5.44,5.44,0,0,0,4,1.56A5.51,5.51,0,0,0,20,27.67a1.7,1.7,0,0,1,.56-.2c.19,0,.3.13.31.38l0,.25h.37v-3H21A2.76,2.76,0,0,1,19.84,27.14Z" transform="translate(-1 -2)"/><path class="cls-2" d="M4.17,22.8A15.86,15.86,0,0,1,4,20.5,15.5,15.5,0,0,1,19.5,5a15.27,15.27,0,0,1,4.61.7" transform="translate(-1 -2)"/></svg>